<svg width="143" height="22" viewBox="0 0 143 22" fill="none" xmlns="http://www.w3.org/2000/svg">
<g id="Social media">
<path id="facebook" fill-rule="evenodd" clip-rule="evenodd" d="M6.13624 19.2919H2.04524V9.90841H0.000244141V6.67351H2.04524V4.73237C2.04524 2.09443 3.20024 0.523926 6.47824 0.523926H9.20824V3.75883H7.50324C6.22524 3.75883 6.14124 4.2115 6.14124 5.05556L6.13624 6.67351H9.22824L8.86624 9.90841H6.13624V19.2919Z" fill="white"/>
<path id="twitter" fill-rule="evenodd" clip-rule="evenodd" d="M55.2363 5.36171C54.4633 5.67997 53.6323 5.89246 52.7613 5.98932C53.6513 5.49514 54.3343 4.71236 54.6563 3.78132C53.8223 4.23795 52.9003 4.57004 51.9183 4.74992C51.1333 3.97307 50.0123 3.48877 48.7733 3.48877C46.3933 3.48877 44.4623 5.27671 44.4623 7.48076C44.4623 7.79407 44.5003 8.09947 44.5743 8.39104C40.9923 8.22401 37.8163 6.63472 35.6903 4.22016C35.3193 4.81021 35.1073 5.49514 35.1073 6.22752C35.1073 7.61122 35.8683 8.83481 37.0243 9.55038C36.3183 9.52864 35.6543 9.34975 35.0723 9.05027C35.0723 9.06806 35.0723 9.08289 35.0723 9.10167C35.0723 11.0359 36.5573 12.6489 38.5293 13.0156C38.1683 13.1065 37.7863 13.1539 37.3943 13.1539C37.1163 13.1539 36.8463 13.1302 36.5833 13.0848C37.1313 14.6691 38.7233 15.8245 40.6093 15.8571C39.1343 16.9275 37.2763 17.565 35.2563 17.565C34.9083 17.565 34.5653 17.5462 34.2283 17.5097C36.1353 18.6413 38.4013 19.3035 40.8353 19.3035C48.7633 19.3035 53.0983 13.2192 53.0983 7.9443C53.0983 7.77035 53.0933 7.59936 53.0853 7.42739C53.9273 6.86402 54.6583 6.1613 55.2363 5.36171Z" fill="white"/>
<g id="feInstagram1">
<path id="feInstagram2" fill-rule="evenodd" clip-rule="evenodd" d="M89.5002 1.51221C86.92 1.51221 86.597 1.52347 85.5834 1.56854C84.5726 1.61455 83.8819 1.77323 83.2777 2.00515C82.6436 2.24068 82.0691 2.61014 81.5943 3.08775C81.1111 3.55701 80.7373 4.12482 80.499 4.75156C80.2643 5.34873 80.1038 6.03134 80.0572 7.03037C80.0107 8.03222 80.0002 8.35146 80.0002 10.9016C80.0002 13.4518 80.0107 13.771 80.0572 14.7729C80.1038 15.7719 80.2643 16.4545 80.499 17.0517C80.7374 17.6784 81.1112 18.2462 81.5943 18.7155C82.0691 19.1931 82.6436 19.5625 83.2777 19.7981C83.8819 20.03 84.5726 20.1887 85.5834 20.2347C86.597 20.2798 86.92 20.2911 89.5002 20.2911C92.0804 20.2911 92.4034 20.2798 93.4171 20.2347C94.4279 20.1887 95.1185 20.03 95.7227 19.7981C96.3569 19.5626 96.9314 19.1931 97.4061 18.7155C97.8894 18.2463 98.2632 17.6784 98.5015 17.0517C98.7361 16.4545 98.8967 15.7719 98.9432 14.7729C98.9888 13.771 99.0002 13.4518 99.0002 10.9016C99.0002 8.35146 98.9888 8.03222 98.9432 7.03037C98.8967 6.03134 98.7361 5.34873 98.5015 4.75156C98.2632 4.12482 97.8894 3.55701 97.4061 3.08775C96.9314 2.61014 96.3569 2.24068 95.7227 2.00515C95.1185 1.77323 94.4279 1.61455 93.4171 1.56854C92.4034 1.52347 92.0804 1.51221 89.5002 1.51221ZM89.5002 3.20418C92.0367 3.20418 92.3369 3.21357 93.3382 3.25864C94.2654 3.30089 94.768 3.453 95.1033 3.58164C95.546 3.75252 95.8633 3.95627 96.1958 4.28397C96.5283 4.6126 96.7335 4.9262 96.9064 5.36375C97.0356 5.6952 97.1914 6.1919 97.2332 7.10737C97.2788 8.09795 97.2883 8.39372 97.2883 10.9016C97.2883 13.4086 97.2788 13.7053 97.2332 14.695C97.1905 15.6114 97.0356 16.1081 96.9064 16.4395C96.7541 16.8474 96.5113 17.2163 96.1958 17.5193C95.8633 17.8479 95.546 18.0507 95.1033 18.2216C94.768 18.3493 94.2654 18.5033 93.3392 18.5446C92.3379 18.5897 92.0377 18.5991 89.5002 18.5991C86.9637 18.5991 86.6626 18.5897 85.6622 18.5446C84.735 18.5024 84.2325 18.3493 83.8971 18.2216C83.4844 18.0712 83.1111 17.8312 82.8046 17.5193C82.4891 17.2164 82.2463 16.8474 82.094 16.4395C81.9639 16.1081 81.809 15.6114 81.7672 14.6959C81.7216 13.7053 81.7121 13.4095 81.7121 10.9016C81.7121 8.39466 81.7216 8.09795 81.7672 7.1083C81.81 6.1919 81.9639 5.6952 82.094 5.36375C82.2669 4.9262 82.4731 4.6126 82.8046 4.28397C83.1371 3.95534 83.4544 3.75252 83.8971 3.58164C84.2325 3.453 84.735 3.29995 85.6613 3.25864C86.6635 3.21357 86.9628 3.20418 89.5002 3.20418ZM89.5002 14.0311C88.6605 14.0311 87.8551 13.7014 87.2613 13.1145C86.6675 12.5276 86.3339 11.7316 86.3339 10.9016C86.3339 10.0716 86.6675 9.27564 87.2613 8.68875C87.8551 8.10185 88.6605 7.77214 89.5002 7.77214C90.34 7.77214 91.1454 8.10185 91.7392 8.68875C92.333 9.27564 92.6666 10.0716 92.6666 10.9016C92.6666 11.7316 92.333 12.5276 91.7392 13.1145C91.1454 13.7014 90.34 14.0311 89.5002 14.0311ZM89.5002 6.08016C88.8596 6.08016 88.2253 6.20487 87.6334 6.44718C87.0416 6.68948 86.5038 7.04462 86.0508 7.49234C85.5978 7.94005 85.2385 8.47157 84.9933 9.05654C84.7482 9.6415 84.622 10.2685 84.622 10.9016C84.622 11.5348 84.7482 12.1618 84.9933 12.7467C85.2385 13.3317 85.5978 13.8632 86.0508 14.3109C86.5038 14.7586 87.0416 15.1138 87.6334 15.3561C88.2253 15.5984 88.8596 15.7231 89.5002 15.7231C90.794 15.7231 92.0348 15.2151 92.9497 14.3109C93.8645 13.4067 94.3785 12.1804 94.3785 10.9016C94.3785 9.6229 93.8645 8.39654 92.9497 7.49234C92.0348 6.58814 90.794 6.08016 89.5002 6.08016ZM95.7113 5.88956C95.7113 6.03752 95.6819 6.18404 95.6246 6.32074C95.5673 6.45744 95.4833 6.58165 95.3774 6.68628C95.2716 6.7909 95.1459 6.8739 95.0076 6.93052C94.8693 6.98714 94.7211 7.01629 94.5713 7.01629C94.4216 7.01629 94.2734 6.98714 94.1351 6.93052C93.9968 6.8739 93.8711 6.7909 93.7652 6.68628C93.6594 6.58165 93.5754 6.45744 93.5181 6.32074C93.4608 6.18404 93.4313 6.03752 93.4313 5.88956C93.4313 5.59073 93.5515 5.30414 93.7652 5.09284C93.979 4.88153 94.269 4.76283 94.5713 4.76283C94.8737 4.76283 95.1637 4.88153 95.3774 5.09284C95.5912 5.30414 95.7113 5.59073 95.7113 5.88956Z" fill="white"/>
</g>
<path id="Vector" d="M137.642 13.7678C137.718 13.1481 137.775 12.5284 137.775 11.8899C137.775 11.2514 137.718 10.6317 137.642 10.012H140.853C141.005 10.613 141.1 11.242 141.1 11.8899C141.1 12.5378 141.005 13.1669 140.853 13.7678M135.961 18.9883C136.531 17.9461 136.968 16.8194 137.272 15.6457H140.074C139.154 17.2121 137.694 18.3987 135.961 18.9883ZM135.723 13.7678H131.277C131.182 13.1481 131.125 12.5284 131.125 11.8899C131.125 11.2514 131.182 10.6223 131.277 10.012H135.723C135.809 10.6223 135.875 11.2514 135.875 11.8899C135.875 12.5284 135.809 13.1481 135.723 13.7678ZM133.5 19.3639C132.712 18.2372 132.075 16.9884 131.686 15.6457H135.315C134.925 16.9884 134.289 18.2372 133.5 19.3639ZM129.7 8.13414H126.926C127.837 6.56349 129.296 5.37505 131.03 4.79151C130.46 5.83373 130.033 6.96047 129.7 8.13414ZM126.926 15.6457H129.7C130.033 16.8194 130.46 17.9461 131.03 18.9883C129.3 18.3983 127.843 17.2116 126.926 15.6457ZM126.147 13.7678C125.995 13.1669 125.9 12.5378 125.9 11.8899C125.9 11.242 125.995 10.613 126.147 10.012H129.358C129.282 10.6317 129.225 11.2514 129.225 11.8899C129.225 12.5284 129.282 13.1481 129.358 13.7678M133.5 4.40654C134.289 5.53327 134.925 6.79146 135.315 8.13414H131.686C132.075 6.79146 132.712 5.53327 133.5 4.40654ZM140.074 8.13414H137.272C136.974 6.97122 136.534 5.84866 135.961 4.79151C137.709 5.38304 139.162 6.5755 140.074 8.13414ZM133.5 2.50049C128.247 2.50049 124 6.72573 124 11.8899C124 14.3801 125.001 16.7684 126.783 18.5292C127.665 19.4011 128.712 20.0928 129.865 20.5646C131.017 21.0365 132.253 21.2793 133.5 21.2793C136.02 21.2793 138.436 20.2901 140.218 18.5292C141.999 16.7684 143 14.3801 143 11.8899C143 10.6569 142.755 9.43591 142.277 8.29674C141.8 7.15756 141.1 6.12248 140.218 5.25059C139.336 4.3787 138.288 3.68708 137.136 3.21522C135.983 2.74335 134.748 2.50049 133.5 2.50049Z" fill="#F8F8F8"/>
</g>
</svg>
